<?xml version="1.0" encoding="UTF-8" ?>
<svg version="1.1" width="40" height="40" xmlns="http://www.w3.org/2000/svg" shape-rendering="crispEdges">
<rect x="13" y="4" width="2" height="1" fill="#1B1D1E" />
<rect x="12" y="5" width="1" height="4" fill="#1B1D1E" />
<rect x="13" y="5" width="1" height="3" fill="#75715E" />
<rect x="14" y="5" width="3" height="1" fill="#1B1D1E" />
<rect x="14" y="6" width="2" height="3" fill="#75715E" />
<rect x="16" y="6" width="3" height="1" fill="#1B1D1E" />
<rect x="16" y="7" width="2" height="14" fill="#75715E" />
<rect x="18" y="7" width="2" height="1" fill="#1B1D1E" />
<rect x="13" y="8" width="1" height="2" fill="#1B1D1E" />
<rect x="18" y="8" width="1" height="15" fill="#75715E" />
<rect x="19" y="8" width="1" height="2" fill="#1B1D1E" />
<rect x="5" y="9" width="2" height="2" fill="#1B1D1E" />
<rect x="14" y="9" width="1" height="7" fill="#1B1D1E" />
<rect x="15" y="9" width="1" height="12" fill="#75715E" />
<rect x="20" y="9" width="1" height="2" fill="#1B1D1E" />
<rect x="4" y="10" width="1" height="3" fill="#1B1D1E" />
<rect x="19" y="10" width="1" height="14" fill="#75715E" />
<rect x="21" y="10" width="1" height="6" fill="#1B1D1E" />
<rect x="5" y="11" width="1" height="6" fill="#75715E" />
<rect x="6" y="11" width="1" height="3" fill="#1B1D1E" />
<rect x="20" y="11" width="1" height="4" fill="#75715E" />
<rect x="3" y="12" width="1" height="7" fill="#1B1D1E" />
<rect x="4" y="13" width="1" height="5" fill="#3E3D32" />
<rect x="7" y="13" width="1" height="3" fill="#1B1D1E" />
<rect x="6" y="14" width="1" height="4" fill="#75715E" />
<rect x="8" y="15" width="2" height="1" fill="#1B1D1E" />
<rect x="11" y="15" width="3" height="1" fill="#1B1D1E" />
<rect x="20" y="15" width="1" height="4" fill="#1B1D1E" />
<rect x="7" y="16" width="2" height="3" fill="#75715E" />
<rect x="9" y="16" width="3" height="1" fill="#1B1D1E" />
<rect x="12" y="16" width="3" height="5" fill="#75715E" />
<rect x="5" y="17" width="1" height="3" fill="#3E3D32" />
<rect x="9" y="17" width="3" height="4" fill="#75715E" />
<rect x="4" y="18" width="1" height="3" fill="#1B1D1E" />
<rect x="6" y="18" width="1" height="3" fill="#3E3D32" />
<rect x="21" y="18" width="1" height="2" fill="#1B1D1E" />
<rect x="7" y="19" width="1" height="3" fill="#3E3D32" />
<rect x="8" y="19" width="1" height="2" fill="#75715E" />
<rect x="20" y="19" width="1" height="7" fill="#75715E" />
<rect x="22" y="19" width="1" height="2" fill="#1B1D1E" />
<rect x="5" y="20" width="1" height="2" fill="#1B1D1E" />
<rect x="21" y="20" width="1" height="7" fill="#75715E" />
<rect x="23" y="20" width="1" height="2" fill="#1B1D1E" />
<rect x="6" y="21" width="1" height="2" fill="#1B1D1E" />
<rect x="8" y="21" width="2" height="1" fill="#3E3D32" />
<rect x="10" y="21" width="1" height="1" fill="#75715E" />
<rect x="11" y="21" width="3" height="1" fill="#3E3D32" />
<rect x="14" y="21" width="2" height="2" fill="#1B1D1E" />
<rect x="16" y="21" width="1" height="2" fill="#3E3D32" />
<rect x="17" y="21" width="1" height="1" fill="#75715E" />
<rect x="22" y="21" width="1" height="8" fill="#75715E" />
<rect x="24" y="21" width="1" height="2" fill="#1B1D1E" />
<rect x="7" y="22" width="3" height="1" fill="#1B1D1E" />
<rect x="10" y="22" width="2" height="1" fill="#3E3D32" />
<rect x="12" y="22" width="2" height="1" fill="#1B1D1E" />
<rect x="17" y="22" width="1" height="2" fill="#3E3D32" />
<rect x="23" y="22" width="1" height="8" fill="#75715E" />
<rect x="25" y="22" width="1" height="2" fill="#1B1D1E" />
<rect x="9" y="23" width="4" height="1" fill="#1B1D1E" />
<rect x="15" y="23" width="2" height="1" fill="#1B1D1E" />
<rect x="18" y="23" width="1" height="2" fill="#3E3D32" />
<rect x="24" y="23" width="1" height="8" fill="#75715E" />
<rect x="26" y="23" width="1" height="1" fill="#1B1D1E" />
<rect x="16" y="24" width="2" height="1" fill="#1B1D1E" />
<rect x="19" y="24" width="1" height="3" fill="#3E3D32" />
<rect x="25" y="24" width="2" height="8" fill="#75715E" />
<rect x="27" y="24" width="2" height="1" fill="#1B1D1E" />
<rect x="17" y="25" width="2" height="1" fill="#1B1D1E" />
<rect x="27" y="25" width="1" height="9" fill="#75715E" />
<rect x="28" y="25" width="2" height="1" fill="#1B1D1E" />
<rect x="18" y="26" width="1" height="2" fill="#1B1D1E" />
<rect x="20" y="26" width="1" height="2" fill="#3E3D32" />
<rect x="28" y="26" width="1" height="9" fill="#75715E" />
<rect x="29" y="26" width="2" height="1" fill="#1B1D1E" />
<rect x="19" y="27" width="1" height="2" fill="#1B1D1E" />
<rect x="21" y="27" width="1" height="3" fill="#3E3D32" />
<rect x="29" y="27" width="1" height="8" fill="#75715E" />
<rect x="30" y="27" width="2" height="1" fill="#1B1D1E" />
<rect x="20" y="28" width="1" height="3" fill="#1B1D1E" />
<rect x="30" y="28" width="1" height="7" fill="#75715E" />
<rect x="31" y="28" width="2" height="1" fill="#1B1D1E" />
<rect x="22" y="29" width="1" height="2" fill="#3E3D32" />
<rect x="31" y="29" width="1" height="7" fill="#75715E" />
<rect x="32" y="29" width="2" height="1" fill="#1B1D1E" />
<rect x="21" y="30" width="1" height="2" fill="#1B1D1E" />
<rect x="23" y="30" width="1" height="2" fill="#3E3D32" />
<rect x="32" y="30" width="1" height="6" fill="#75715E" />
<rect x="33" y="30" width="1" height="2" fill="#1B1D1E" />
<rect x="22" y="31" width="1" height="2" fill="#1B1D1E" />
<rect x="24" y="31" width="1" height="2" fill="#3E3D32" />
<rect x="34" y="31" width="1" height="5" fill="#1B1D1E" />
<rect x="23" y="32" width="1" height="2" fill="#1B1D1E" />
<rect x="25" y="32" width="1" height="2" fill="#3E3D32" />
<rect x="26" y="32" width="1" height="1" fill="#75715E" />
<rect x="33" y="32" width="1" height="3" fill="#75715E" />
<rect x="24" y="33" width="1" height="2" fill="#1B1D1E" />
<rect x="26" y="33" width="1" height="2" fill="#3E3D32" />
<rect x="25" y="34" width="1" height="2" fill="#1B1D1E" />
<rect x="27" y="34" width="1" height="1" fill="#3E3D32" />
<rect x="26" y="35" width="2" height="1" fill="#1B1D1E" />
<rect x="28" y="35" width="3" height="1" fill="#3E3D32" />
<rect x="33" y="35" width="1" height="3" fill="#1B1D1E" />
<rect x="27" y="36" width="4" height="1" fill="#1B1D1E" />
<rect x="31" y="36" width="2" height="1" fill="#3E3D32" />
<rect x="30" y="37" width="3" height="1" fill="#1B1D1E" />
</svg>