<?xml version="1.0" encoding="UTF-8" ?>
<svg version="1.1" width="32" height="32" xmlns="http://www.w3.org/2000/svg" shape-rendering="crispEdges">
<rect x="20" y="3" width="6" height="1" fill="#272820" />
<rect x="18" y="4" width="3" height="1" fill="#272820" />
<rect x="21" y="4" width="4" height="3" fill="#75715E" />
<rect x="25" y="4" width="3" height="1" fill="#272820" />
<rect x="16" y="5" width="3" height="1" fill="#272820" />
<rect x="19" y="5" width="2" height="2" fill="#75715E" />
<rect x="25" y="5" width="2" height="4" fill="#75715E" />
<rect x="27" y="5" width="2" height="1" fill="#272820" />
<rect x="15" y="6" width="2" height="1" fill="#272820" />
<rect x="17" y="6" width="2" height="2" fill="#75715E" />
<rect x="27" y="6" width="1" height="8" fill="#75715E" />
<rect x="28" y="6" width="1" height="2" fill="#272820" />
<rect x="14" y="7" width="2" height="1" fill="#272820" />
<rect x="16" y="7" width="1" height="2" fill="#75715E" />
<rect x="19" y="7" width="4" height="1" fill="#272820" />
<rect x="23" y="7" width="2" height="1" fill="#75715E" />
<rect x="29" y="7" width="1" height="7" fill="#272820" />
<rect x="14" y="8" width="1" height="2" fill="#272820" />
<rect x="15" y="8" width="1" height="10" fill="#75715E" />
<rect x="17" y="8" width="3" height="1" fill="#272820" />
<rect x="22" y="8" width="3" height="1" fill="#272820" />
<rect x="28" y="8" width="1" height="5" fill="#75715E" />
<rect x="13" y="9" width="1" height="4" fill="#272820" />
<rect x="16" y="9" width="2" height="1" fill="#272820" />
<rect x="24" y="9" width="2" height="1" fill="#272820" />
<rect x="26" y="9" width="1" height="7" fill="#75715E" />
<rect x="14" y="10" width="1" height="8" fill="#75715E" />
<rect x="16" y="10" width="1" height="6" fill="#272820" />
<rect x="25" y="10" width="1" height="4" fill="#272820" />
<rect x="12" y="11" width="1" height="8" fill="#272820" />
<rect x="17" y="11" width="4" height="1" fill="#272820" />
<rect x="10" y="12" width="2" height="1" fill="#272820" />
<rect x="17" y="12" width="3" height="3" fill="#75715E" />
<rect x="20" y="12" width="2" height="2" fill="#272820" />
<rect x="9" y="13" width="2" height="1" fill="#272820" />
<rect x="11" y="13" width="1" height="5" fill="#75715E" />
<rect x="13" y="13" width="1" height="4" fill="#75715E" />
<rect x="24" y="13" width="1" height="2" fill="#272820" />
<rect x="28" y="13" width="1" height="2" fill="#272820" />
<rect x="8" y="14" width="2" height="1" fill="#272820" />
<rect x="10" y="14" width="1" height="6" fill="#75715E" />
<rect x="20" y="14" width="1" height="10" fill="#75715E" />
<rect x="21" y="14" width="3" height="1" fill="#272820" />
<rect x="25" y="14" width="1" height="3" fill="#75715E" />
<rect x="27" y="14" width="1" height="3" fill="#272820" />
<rect x="7" y="15" width="2" height="1" fill="#272820" />
<rect x="9" y="15" width="1" height="13" fill="#75715E" />
<rect x="17" y="15" width="1" height="3" fill="#272820" />
<rect x="18" y="15" width="2" height="2" fill="#75715E" />
<rect x="21" y="15" width="1" height="7" fill="#75715E" />
<rect x="22" y="15" width="1" height="8" fill="#272820" />
<rect x="23" y="15" width="2" height="3" fill="#75715E" />
<rect x="7" y="16" width="1" height="2" fill="#272820" />
<rect x="8" y="16" width="1" height="11" fill="#75715E" />
<rect x="16" y="16" width="1" height="3" fill="#75715E" />
<rect x="26" y="16" width="1" height="2" fill="#272820" />
<rect x="6" y="17" width="1" height="4" fill="#272820" />
<rect x="13" y="17" width="1" height="2" fill="#272820" />
<rect x="18" y="17" width="1" height="4" fill="#272820" />
<rect x="19" y="17" width="1" height="8" fill="#75715E" />
<rect x="25" y="17" width="1" height="1" fill="#272820" />
<rect x="7" y="18" width="1" height="8" fill="#75715E" />
<rect x="11" y="18" width="1" height="3" fill="#272820" />
<rect x="14" y="18" width="2" height="1" fill="#272820" />
<rect x="17" y="18" width="1" height="1" fill="#75715E" />
<rect x="23" y="18" width="2" height="1" fill="#272820" />
<rect x="15" y="19" width="3" height="1" fill="#272820" />
<rect x="5" y="20" width="1" height="5" fill="#272820" />
<rect x="10" y="20" width="1" height="4" fill="#272820" />
<rect x="17" y="20" width="1" height="3" fill="#272820" />
<rect x="6" y="21" width="1" height="3" fill="#75715E" />
<rect x="18" y="21" width="1" height="4" fill="#75715E" />
<rect x="16" y="22" width="1" height="2" fill="#272820" />
<rect x="21" y="22" width="1" height="3" fill="#272820" />
<rect x="11" y="23" width="5" height="1" fill="#272820" />
<rect x="17" y="23" width="1" height="3" fill="#75715E" />
<rect x="6" y="24" width="1" height="3" fill="#272820" />
<rect x="10" y="24" width="7" height="3" fill="#75715E" />
<rect x="20" y="24" width="1" height="2" fill="#272820" />
<rect x="18" y="25" width="2" height="1" fill="#272820" />
<rect x="7" y="26" width="1" height="2" fill="#272820" />
<rect x="17" y="26" width="2" height="1" fill="#272820" />
<rect x="8" y="27" width="1" height="2" fill="#272820" />
<rect x="10" y="27" width="5" height="1" fill="#75715E" />
<rect x="15" y="27" width="3" height="1" fill="#272820" />
<rect x="9" y="28" width="7" height="1" fill="#272820" />
</svg>