<?xml version="1.0" encoding="UTF-8" ?>
<svg version="1.1" width="32" height="32" xmlns="http://www.w3.org/2000/svg" shape-rendering="crispEdges">
<rect x="13" y="5" width="6" height="1" fill="#272820" />
<rect x="12" y="6" width="2" height="1" fill="#272820" />
<rect x="14" y="6" width="4" height="9" fill="#75715E" />
<rect x="18" y="6" width="4" height="1" fill="#272820" />
<rect x="11" y="7" width="2" height="1" fill="#272820" />
<rect x="13" y="7" width="1" height="8" fill="#75715E" />
<rect x="18" y="7" width="3" height="1" fill="#75715E" />
<rect x="21" y="7" width="2" height="1" fill="#272820" />
<rect x="10" y="8" width="2" height="1" fill="#272820" />
<rect x="12" y="8" width="1" height="6" fill="#75715E" />
<rect x="18" y="8" width="2" height="1" fill="#F8F8F2" />
<rect x="20" y="8" width="2" height="1" fill="#75715E" />
<rect x="22" y="8" width="2" height="1" fill="#272820" />
<rect x="10" y="9" width="1" height="5" fill="#272820" />
<rect x="11" y="9" width="1" height="4" fill="#75715E" />
<rect x="18" y="9" width="1" height="7" fill="#75715E" />
<rect x="19" y="9" width="2" height="1" fill="#F8F8F2" />
<rect x="21" y="9" width="2" height="4" fill="#75715E" />
<rect x="23" y="9" width="1" height="5" fill="#272820" />
<rect x="19" y="10" width="1" height="6" fill="#75715E" />
<rect x="20" y="10" width="1" height="2" fill="#F8F8F2" />
<rect x="20" y="12" width="1" height="3" fill="#75715E" />
<rect x="11" y="13" width="1" height="2" fill="#272820" />
<rect x="21" y="13" width="1" height="1" fill="#75715E" />
<rect x="22" y="13" width="1" height="2" fill="#272820" />
<rect x="12" y="14" width="1" height="2" fill="#272820" />
<rect x="21" y="14" width="1" height="2" fill="#272820" />
<rect x="13" y="15" width="2" height="2" fill="#272820" />
<rect x="15" y="15" width="3" height="1" fill="#75715E" />
<rect x="20" y="15" width="1" height="2" fill="#272820" />
<rect x="15" y="16" width="5" height="1" fill="#272820" />
<rect x="14" y="17" width="1" height="6" fill="#272820" />
<rect x="15" y="17" width="4" height="1" fill="#3E3D32" />
<rect x="19" y="17" width="1" height="2" fill="#272820" />
<rect x="15" y="18" width="3" height="4" fill="#3E3D32" />
<rect x="18" y="18" width="1" height="5" fill="#272820" />
<rect x="15" y="22" width="1" height="7" fill="#272820" />
<rect x="16" y="22" width="1" height="5" fill="#3E3D32" />
<rect x="17" y="22" width="1" height="6" fill="#272820" />
<rect x="16" y="27" width="1" height="4" fill="#272820" />
</svg>