<?xml version="1.0" encoding="UTF-8" ?>
<svg version="1.1" width="32" height="32" xmlns="http://www.w3.org/2000/svg" shape-rendering="crispEdges">
<rect x="5" y="8" width="22" height="1" fill="#272820" />
<rect x="3" y="9" width="3" height="1" fill="#272820" />
<rect x="6" y="9" width="20" height="3" fill="#75715E" />
<rect x="26" y="9" width="3" height="1" fill="#272820" />
<rect x="3" y="10" width="2" height="2" fill="#272820" />
<rect x="5" y="10" width="1" height="1" fill="#75715E" />
<rect x="26" y="10" width="1" height="1" fill="#75715E" />
<rect x="27" y="10" width="2" height="2" fill="#272820" />
<rect x="5" y="11" width="1" height="2" fill="#272820" />
<rect x="26" y="11" width="1" height="2" fill="#272820" />
<rect x="3" y="12" width="1" height="12" fill="#272820" />
<rect x="4" y="12" width="1" height="11" fill="#75715E" />
<rect x="6" y="12" width="2" height="1" fill="#272820" />
<rect x="8" y="12" width="16" height="1" fill="#75715E" />
<rect x="24" y="12" width="2" height="1" fill="#272820" />
<rect x="27" y="12" width="1" height="11" fill="#75715E" />
<rect x="28" y="12" width="1" height="12" fill="#272820" />
<rect x="5" y="13" width="2" height="11" fill="#75715E" />
<rect x="7" y="13" width="2" height="1" fill="#272820" />
<rect x="9" y="13" width="14" height="1" fill="#75715E" />
<rect x="23" y="13" width="2" height="1" fill="#272820" />
<rect x="25" y="13" width="2" height="11" fill="#75715E" />
<rect x="7" y="14" width="1" height="11" fill="#75715E" />
<rect x="8" y="14" width="3" height="1" fill="#272820" />
<rect x="11" y="14" width="10" height="1" fill="#75715E" />
<rect x="21" y="14" width="3" height="1" fill="#272820" />
<rect x="24" y="14" width="1" height="11" fill="#75715E" />
<rect x="8" y="15" width="2" height="10" fill="#75715E" />
<rect x="10" y="15" width="3" height="1" fill="#272820" />
<rect x="13" y="15" width="6" height="1" fill="#75715E" />
<rect x="19" y="15" width="3" height="1" fill="#272820" />
<rect x="22" y="15" width="2" height="10" fill="#75715E" />
<rect x="10" y="16" width="2" height="9" fill="#75715E" />
<rect x="12" y="16" width="3" height="1" fill="#272820" />
<rect x="15" y="16" width="2" height="1" fill="#75715E" />
<rect x="17" y="16" width="3" height="1" fill="#272820" />
<rect x="20" y="16" width="2" height="9" fill="#75715E" />
<rect x="12" y="17" width="3" height="8" fill="#75715E" />
<rect x="15" y="17" width="2" height="1" fill="#272820" />
<rect x="17" y="17" width="3" height="8" fill="#75715E" />
<rect x="15" y="18" width="2" height="7" fill="#75715E" />
<rect x="4" y="23" width="1" height="2" fill="#272820" />
<rect x="27" y="23" width="1" height="2" fill="#272820" />
<rect x="5" y="24" width="1" height="2" fill="#272820" />
<rect x="6" y="24" width="1" height="1" fill="#75715E" />
<rect x="25" y="24" width="1" height="1" fill="#75715E" />
<rect x="26" y="24" width="1" height="2" fill="#272820" />
<rect x="6" y="25" width="20" height="1" fill="#272820" />
</svg>